<?xml version="1.0" encoding="iso-8859-1"?>
<!-- Generator: Adobe Illustrator 18.0.0, SVG Export Plug-In . SVG Version: 6.00 Build 0)  -->
<!DOCTYPE svg PUBLIC "-//W3C//DTD SVG 1.1//EN" "http://www.w3.org/Graphics/SVG/1.1/DTD/svg11.dtd">
<svg xmlns="http://www.w3.org/2000/svg" xmlns:xlink="http://www.w3.org/1999/xlink" version="1.1" id="Capa_1" x="0px" y="0px" viewBox="0 0 297 297" style="enable-background:new 0 0 297 297;" xml:space="preserve" width="512px" height="512px">
<g>
	<path d="M251.701,11.96H104.125c-3.448,0-6.672,1.711-8.605,4.566c-1.933,2.856-2.325,6.484-1.044,9.686l45.621,114.052   c1.578,3.946,5.4,6.533,9.649,6.533h25.871l-18.97,107.314c-1.359,7.689,0.739,15.531,5.757,21.515s12.376,9.416,20.185,9.416   h36.032c12.802,0,23.713-9.151,25.942-21.759l20.974-118.654C283.768,138.764,297,121.65,297,101.498V57.258   C297,32.281,276.679,11.96,251.701,11.96z M119.474,32.744h22.923l37.307,93.268h-22.922L119.474,32.744z M224.097,259.663   c-0.47,2.661-2.773,4.593-5.475,4.593H182.59c-2.257,0-3.638-1.245-4.26-1.987c-0.622-0.743-1.608-2.319-1.215-4.54l7.513-42.502   h15.924c5.739,0,10.392-4.653,10.392-10.392c0-5.739-4.653-10.392-10.392-10.392h-12.25l8.423-47.647h47.324L224.097,259.663z    M276.216,101.498c0,13.518-10.997,24.515-24.515,24.515H202.09l-37.307-93.268h86.918c13.518,0,24.515,10.997,24.515,24.515   V101.498z" fill="#D80027"/>
	<path d="M89.951,121.243c-8.668-3.664-15.389-10.483-18.927-19.203c-3.539-8.72-3.469-18.295,0.195-26.962   c2.235-5.286-0.24-11.383-5.526-13.618c-5.286-2.235-11.384,0.24-13.618,5.526c-5.825,13.781-5.936,29.005-0.311,42.869   s16.314,24.706,30.094,30.533c1.32,0.558,2.692,0.823,4.041,0.823c4.051,0,7.901-2.383,9.577-6.349   C97.711,129.575,95.237,123.478,89.951,121.243z" fill="#D80027"/>
	<path d="M71.396,165.137C29.3,147.343,9.53,98.619,27.325,56.524c2.235-5.286-0.24-11.383-5.526-13.618   c-5.288-2.233-11.384,0.241-13.618,5.526c-22.257,52.651,2.472,113.593,55.123,135.85c1.321,0.558,2.692,0.823,4.041,0.823   c4.051,0,7.901-2.384,9.577-6.349C79.157,173.469,76.683,167.372,71.396,165.137z" fill="#D80027"/>
</g>
<g>
</g>
<g>
</g>
<g>
</g>
<g>
</g>
<g>
</g>
<g>
</g>
<g>
</g>
<g>
</g>
<g>
</g>
<g>
</g>
<g>
</g>
<g>
</g>
<g>
</g>
<g>
</g>
<g>
</g>
</svg>
